<?xml version="1.0" encoding="utf-8"?>
<!-- Generator: Adobe Illustrator 24.3.0, SVG Export Plug-In . SVG Version: 6.00 Build 0)  -->
<svg version="1.0" id="katman_1" xmlns="http://www.w3.org/2000/svg" xmlns:xlink="http://www.w3.org/1999/xlink" x="0px" y="0px"
	 viewBox="0 0 500 487.5" style="enable-background:new 0 0 500 487.5;" xml:space="preserve">
<style type="text/css">
	.st0{fill:#00005B;}
	.st1{fill:#9999FF;}
</style>
<path class="st0" d="M411.46,0H88.54C39.64,0,0,39.64,0,88.54v310.42c0,48.9,39.64,88.54,88.54,88.54h322.92
	c48.9,0,88.54-39.64,88.54-88.54V88.54C500,39.64,460.36,0,411.46,0z"/>
<path class="st1" d="M200.89,291.65h-77.48l-15.76,49.07c-0.22,0.89-0.73,1.68-1.47,2.23c-0.74,0.55-1.64,0.83-2.56,0.78H64.38
	c-2.24,0-3.02-1.23-2.35-3.69l67.08-192.4c0.67-2.01,1.34-3.98,2.01-6.55c0.88-4.47,1.33-9.02,1.34-13.58
	c-0.05-0.32-0.02-0.64,0.09-0.95c0.1-0.3,0.27-0.58,0.5-0.81c0.23-0.23,0.51-0.4,0.81-0.5c0.31-0.1,0.63-0.13,0.95-0.09h53.33
	c1.56,0,2.46,0.56,2.68,1.68l76.14,213.54c0.67,2.24,0,3.36-2.01,3.35h-43.61c-0.75,0.08-1.5-0.11-2.12-0.54
	c-0.62-0.43-1.06-1.07-1.24-1.81L200.89,291.65z M135.49,250.28h53c-1.34-4.47-2.91-9.5-4.7-15.09c-1.79-5.59-3.69-11.57-5.7-17.94
	c-2.01-6.37-4.02-12.75-6.04-19.12c-2.01-6.37-3.86-12.52-5.54-18.45c-1.68-5.92-3.19-11.34-4.53-16.27h-0.33
	c-1.89,9.06-4.24,18.01-7.04,26.83c-3.13,10.06-6.32,20.35-9.56,30.86C141.8,231.61,138.62,241.34,135.49,250.28z"/>
<path class="st1" d="M390.41,272.55h-66.08c0.81,6.54,2.98,12.83,6.37,18.48c3.75,5.59,9.06,9.96,15.26,12.58
	c8.41,3.64,17.51,5.42,26.67,5.23c7.27-0.14,14.51-0.93,21.63-2.38c6.37-0.86,12.62-2.49,18.6-4.85c1.12-0.89,1.68-0.33,1.68,1.68
	v31.86c0.05,0.87-0.12,1.74-0.5,2.52c-0.38,0.61-0.9,1.13-1.51,1.51c-6.63,2.94-13.62,5.02-20.78,6.19
	c-9.73,1.83-19.62,2.67-29.52,2.52c-15.88,0-29.19-2.46-39.92-7.38c-10.14-4.47-19.1-11.24-26.16-19.79
	c-6.6-8.05-11.5-17.35-14.42-27.34c-2.89-9.86-4.36-20.08-4.36-30.36c-0.03-11.22,1.73-22.37,5.2-33.04
	c3.35-10.41,8.64-20.08,15.6-28.51c6.86-8.33,15.44-15.08,25.16-19.79c9.84-4.81,21.47-6.53,34.88-6.53
	c11.13-0.28,22.18,1.89,32.37,6.37c8.57,3.65,16.11,9.35,21.97,16.59c5.49,7.09,9.7,15.1,12.41,23.65c2.64,8.24,4,16.84,4.03,25.49
	c0,4.92-0.17,9.39-0.5,13.42c-0.33,4.02-0.61,6.93-0.84,8.72c-0.09,0.74-0.44,1.42-1,1.92c-0.56,0.49-1.27,0.77-2.02,0.77
	c-1.34,0-3.63,0.17-6.88,0.5c-3.24,0.34-7.27,0.56-12.08,0.67C400.86,273.37,395.77,272.55,390.41,272.55z M324.33,242h43.94
	c5.37,0,9.34-0.06,11.91-0.17c1.72-0.17,3.38-0.72,4.86-1.61v-2.01c-0.07-2.62-0.52-5.22-1.34-7.71
	c-1.81-5.72-5.45-10.69-10.36-14.15c-4.91-3.45-10.81-5.2-16.81-4.97c-5.64-0.34-11.27,0.97-16.18,3.77
	c-4.91,2.8-8.91,6.97-11.49,12C326.56,231.81,325.03,236.83,324.33,242L324.33,242z"/>
</svg>
