<?xml version="1.0" encoding="utf-8"?><svg version="1.1" id="Layer_1" xmlns="http://www.w3.org/2000/svg" xmlns:xlink="http://www.w3.org/1999/xlink" x="0px" y="0px" viewBox="0 0 70.29 122.88" style="enable-background:new 0 0 70.29 122.88" xml:space="preserve"><style type="text/css"><![CDATA[
	.st0{fill-rule:evenodd;clip-rule:evenodd;}
	.st1{fill:#32DE84;}
]]></style><g><path class="st0" d="M13.26,0h43.76c3.65,0,6.98,1.49,9.38,3.88c2.4,2.4,3.89,5.73,3.89,9.38v96.35c0,3.65-1.49,6.98-3.89,9.38 c-2.39,2.39-5.73,3.88-9.38,3.88H13.26c-3.65,0-6.98-1.49-9.38-3.88c-2.4-2.4-3.89-5.73-3.89-9.38V13.26 c0-3.65,1.49-6.98,3.89-9.38C6.28,1.49,9.61,0,13.26,0L13.26,0z M67.09,13.69v90.97c-22.23,0-41.69-0.01-63.91-0.01V13.69H67.09 L67.09,13.69z M26.45,112.41h18.77c0.58,0,1.06,0.48,1.06,1.06v0.54c0,0.58-0.48,1.06-1.06,1.06H26.45c-0.58,0-1.06-0.48-1.06-1.06 v-0.54C25.39,112.89,25.87,112.41,26.45,112.41L26.45,112.41z"/><path d="M14.86,76.49c1.35,0,2.06,1.19,2.06,2.21c0,1.13-0.84,2.2-2.06,2.2c-1.02,0-2.04-0.82-2.04-2.22 C12.83,77.42,13.7,76.49,14.86,76.49L14.86,76.49z M14.58,75.08c-1.64,0-3.33,1.32-3.33,3.62c0,2.11,1.49,3.6,3.33,3.6 c1.52,0,2.2-1.03,2.2-1.03v0.45c0,0.21,0.2,0.45,0.45,0.45h1.1v-6.93h-1.55v0.88C16.79,76.11,16.1,75.08,14.58,75.08L14.58,75.08 L14.58,75.08z"/><path d="M20.49,82.16c-0.24,0-0.45-0.17-0.45-0.45v-6.48h1.55v0.86c0.35-0.53,1.04-1.02,2.09-1.02c1.72,0,2.64,1.37,2.64,2.65v4.43 h-1.08c-0.28,0-0.47-0.24-0.47-0.47v-3.62c0-0.71-0.44-1.57-1.44-1.57c-1.09,0-1.73,1.03-1.73,1.99v3.67H20.49L20.49,82.16z"/><path d="M31.1,76.49c1.35,0,2.06,1.19,2.06,2.21c0,1.13-0.84,2.2-2.06,2.2c-1.02,0-2.04-0.82-2.04-2.22 C29.07,77.42,29.95,76.49,31.1,76.49L31.1,76.49z M30.83,75.08c-1.64,0-3.33,1.32-3.33,3.62c0,2.11,1.49,3.6,3.33,3.6 c1.52,0,2.2-1.03,2.2-1.03v0.45c0,0.21,0.2,0.45,0.45,0.45h1.1V71.77h-1.55v4.34C33.03,76.11,32.35,75.08,30.83,75.08L30.83,75.08 L30.83,75.08z"/><path d="M36.73,82.16c-0.24,0-0.45-0.17-0.45-0.45v-6.48h1.55v1.16c0.27-0.65,0.84-1.23,1.86-1.23c0.28,0,0.55,0.05,0.55,0.05v1.6 c0,0-0.33-0.13-0.73-0.13c-1.09,0-1.68,1.03-1.68,1.99v3.49H36.73L36.73,82.16z"/><path d="M49.64,82.16c-0.24,0-0.45-0.17-0.45-0.45v-6.48h1.55v6.93H49.64L49.64,82.16z"/><path d="M55.56,76.49c1.35,0,2.06,1.19,2.06,2.21c0,1.13-0.84,2.2-2.06,2.2c-1.02,0-2.04-0.82-2.04-2.22 C53.53,77.42,54.4,76.49,55.56,76.49L55.56,76.49z M55.28,75.08c-1.64,0-3.33,1.32-3.33,3.62c0,2.11,1.49,3.6,3.33,3.6 c1.53,0,2.21-1.03,2.21-1.03v0.45c0,0.21,0.2,0.45,0.45,0.45h1.1V71.77h-1.55v4.34C57.49,76.11,56.8,75.08,55.28,75.08L55.28,75.08 L55.28,75.08z"/><path d="M49.96,71.69c0.57,0,1.02,0.46,1.02,1.02c0,0.57-0.46,1.02-1.02,1.02s-1.02-0.46-1.02-1.02 C48.93,72.15,49.39,71.69,49.96,71.69L49.96,71.69z"/><path d="M44.34,76.52c1.19,0,2.08,0.96,2.08,2.17c0,1.23-0.94,2.18-2.07,2.18c-1.05,0-2.07-0.86-2.07-2.16 C42.27,77.38,43.24,76.52,44.34,76.52L44.34,76.52L44.34,76.52z M44.33,75.08c-1.72,0-3.61,1.28-3.61,3.61 c0,2.12,1.61,3.61,3.61,3.61c2.46,0,3.66-1.98,3.66-3.6C47.99,76.72,46.44,75.08,44.33,75.08L44.33,75.08L44.33,75.08z"/><path class="st1" d="M46.11,60.66c-1.11,0-2-0.9-2-2c0-1.11,0.9-2,2-2c1.11,0,2,0.9,2,2C48.12,59.76,47.22,60.66,46.11,60.66 L46.11,60.66z M24.19,60.66c-1.11,0-2-0.9-2-2c0-1.11,0.9-2,2-2c1.11,0,2,0.9,2,2C26.2,59.76,25.3,60.66,24.19,60.66L24.19,60.66z M46.81,48.65l3.96-6.86c0.22-0.38,0.09-0.87-0.29-1.1c-0.38-0.22-0.87-0.09-1.09,0.29l-4.01,6.95c-3.06-1.4-6.51-2.18-10.21-2.18 c-3.71,0-7.15,0.78-10.21,2.18l-4.01-6.95c-0.22-0.38-0.71-0.52-1.1-0.29c-0.38,0.22-0.52,0.71-0.29,1.1l3.96,6.86 c-6.83,3.7-11.46,10.61-12.22,18.71h47.75C58.27,59.27,53.64,52.35,46.81,48.65L46.81,48.65z"/></g></svg>