<?xml version="1.0" encoding="utf-8"?>
<!-- Generator: Adobe Illustrator 25.0.0, SVG Export Plug-In . SVG Version: 6.00 Build 0)  -->
<svg version="1.1" id="Layer_1" xmlns="http://www.w3.org/2000/svg" xmlns:xlink="http://www.w3.org/1999/xlink" x="0px" y="0px"
	 viewBox="0 0 500 500" style="enable-background:new 0 0 500 500;" xml:space="preserve">
<style type="text/css">
	.st0{fill:#00005B;}
	.st1{fill-rule:evenodd;clip-rule:evenodd;fill:#9999FF;}
	.st2{fill:#9999FF;}
</style>
<g id="Audition" transform="translate(1055 308)">
	<path id="_5" class="st0" d="M-951.2-270.6h292.3c36.7,0,66.4,29.7,66.4,66.4V88.2c0,36.7-29.7,66.4-66.4,66.4h-292.3
		c-36.7,0-66.4-29.7-66.4-66.4v-292.3C-1017.6-240.9-987.9-270.6-951.2-270.6z"/>
	<path id="_8" class="st1" d="M-794.9,28.7l-57.1-170.9c-0.2-0.9-0.7-1.7-1.5-2.2c-0.8-0.5-1.7-0.8-2.6-0.7h-37.1
		c-2-0.1-3.7,1.4-3.8,3.4c0,0.1,0,0.3,0,0.4c0,4.7-0.6,9.3-2,13.8v0l-51.1,156v0.1c-0.5,1.3-0.3,2.7,0.4,3.9
		c0.9,1.1,2.2,1.7,3.6,1.6h26.5c1.2,0,2.3-0.3,3.3-1c0.9-0.7,1.4-1.7,1.6-2.8l14-44.8h53.1l14.9,45.7l0.1,0.1
		c0.4,0.9,1.1,1.6,1.9,2.1c0.8,0.5,1.8,0.7,2.7,0.7h29.7c1.3,0.1,2.6-0.6,3.3-1.8C-794.5,31.2-794.5,29.9-794.9,28.7z M-855.1-44.3
		H-893c9.2-30.1,15.5-51.3,18.6-63.4c1.2,4.2,2.6,9,4.2,14.4c2.8,9.4,5.9,19.4,9.3,30.2C-858.2-54.6-856.3-48.4-855.1-44.3z"/>
	<path id="_9" class="st2" d="M-693.1,31c-0.5-1.6-0.9-3.2-1.2-4.8c-9.6,7.1-21.3,10.7-33.2,10.3c-14.6,0-26-4.1-33.6-12.8
		c-7.6-8.6-11.2-21.3-11.2-37.6v-81c-0.2-2.3,1.5-4.2,3.8-4.4c0.2,0,0.4,0,0.6,0h28.3c1.2,0,2.3,0.4,3.1,1.3c0.7,0.9,1.1,2,1,3.1
		v78.9c0,8.2,1.7,14,4.7,17.6c3.5,3.9,8.5,5.9,13.7,5.5c7.5,0.2,14.7-2.8,19.7-8.4V-95c-0.2-2.3,1.5-4.2,3.8-4.4c0.2,0,0.4,0,0.6,0
		h28.1c1.1,0,2.2,0.3,3.1,1c0.9,0.8,1.3,1.9,1.3,3.1V3.5c0,8.2,0.4,16.9,1.3,26.1c0.3,1.3,0,2.6-0.9,3.5l-0.3,0.3l-0.3,0.2
		c-0.9,0.4-1.9,0.5-2.9,0.5h-24.6c-1,0-2-0.2-2.9-0.7C-692.2,32.8-692.8,32-693.1,31z"/>
</g>
</svg>
