<svg height="217" preserveAspectRatio="xMidYMid" viewBox="0 0 512 217" width="512" xmlns="http://www.w3.org/2000/svg"><path d="m175.374345 43.9898357-68.003404-40.37446808c-8.0824956-4.82049016-18.157504-4.82049016-26.2399998 0l-68.0170213 40.37446808c-8.18153926 4.9356737-13.16278626 13.8119145-13.11355838 23.3668085v80.7353188c-.0444226 9.550049 4.93620266 18.42001 13.11355838 23.353192l68.0034043 40.360851c8.0833172 4.817508 18.1566827 4.817508 26.2399998 0l68.003404-40.360851c8.186765-4.932303 13.173534-13.809166 13.127176-23.366809v-80.7217018c.049228-9.554894-4.932019-18.4311348-13.113559-23.3668085z" fill="#fff"/><path d="m175.374345 43.9898357-68.003404-40.37446808c-8.0824956-4.82049016-18.157504-4.82049016-26.2399998 0l-68.0170213 40.37446808c-8.18153926 4.9356737-13.16278626 13.8119145-13.11355838 23.3668085v80.7353188c-.0444226 9.550049 4.93620266 18.42001 13.11355838 23.353192l68.0034043 40.360851c8.0833172 4.817508 18.1566827 4.817508 26.2399998 0l68.003404-40.360851c8.186765-4.932303 13.173534-13.809166 13.127176-23.366809v-80.7217018c.049228-9.554894-4.932019-18.4311348-13.113559-23.3668085zm-91.8740421 163.6902123-68.0034043-40.360851c-6.7201738-4.072186-10.81333369-11.369587-10.78485971-19.227234v-80.7353188c-.03118259-7.8583491 4.0626745-15.1569933 10.78485971-19.227234l68.0034043-40.37446812c6.6183983-3.9484368 14.8692613-3.9484368 21.4876591 0l67.948937 40.37446812c5.601439 3.392712 9.422556 9.0820415 10.444255 15.5506383-2.260426-4.8068085-7.339575-6.1276596-13.262979-2.7234043l-64.285957 39.8161698c-8.0204257 4.670639-13.930213 9.940426-13.94383 19.608511v79.278298c0 5.787234 2.3285106 9.531915 5.9234043 10.634894-1.1772343.215739-2.3708692.329635-3.5676596.340425-3.7815832-.002769-7.4926951-1.023443-10.7438298-2.954894z" fill="#2f3a3e"/><path d="m157.549665 155.894517-16.939575 10.131063c-.45367.182332-.75771.614388-.77617 1.102979v4.452766c0 .544681.367659.762553.817021.50383l17.198298-10.457872c.421175-.315736.622653-.845942.517447-1.361703v-3.908085c-.013617-.50383-.408511-.721702-.817021-.462978z" fill="#3ab14a"/><path d="m121.491792 118.597495c.544681-.27234.994043 0 1.00766.77617l.054468 5.909788c2.037056-.925445 4.309667-1.201201 6.508936-.789788.422128.108937.599149.680852.435745 1.361703l-1.293617 5.188085c-.098066.391541-.300416.749183-.585532 1.034893-.100134.098795-.214972.181478-.340426.245107-.15393.083254-.331478.112046-.503829.081702-2.144479-.474888-4.389334-.114542-6.277447 1.007659-2.760797 1.24366-4.565433 3.958552-4.643405 6.985532 0 2.723405 1.361703 3.472341 6.114043 3.554043 6.277447.108936 9.000851 2.845957 9.068936 9.177872-.149459 6.60931-3.196912 12.818745-8.333617 16.980426l.108936 5.800851c-.00968.72047-.383916 1.386916-.994042 1.770213l-3.43149 1.974468c-.54468.27234-.994042 0-1.007659-.762554v-5.705531c-2.941277 1.225531-5.923404 1.511489-7.829787.748936-.354043-.13617-.517447-.667234-.36766-1.28l1.239149-5.242553c.094226-.414886.307135-.793391.612766-1.089362.096931-.092849.207058-.170855.326808-.23149.177543-.079808.380756-.079808.558298 0 2.427466.658147 5.016671.330213 7.203405-.91234 3.155569-1.521889 5.20631-4.668805 5.324255-8.170213 0-2.941276-1.620426-4.166808-5.446809-4.194042-4.942978 0-9.531915-.953192-9.627234-8.170213.113738-6.305001 3.040709-12.228871 7.979575-16.149787l-.245107-5.937022c-.002198-.730842.373844-1.410809.994043-1.797446z" fill="#fff"/><g fill="#2f3a3e"><path d="m390.645835 61.3515378c7.987328-2.4123018 16.525505-2.2933857 24.442553.3404256 3.943461 1.3111998 7.629383 3.2969901 10.893617 5.8689361 3.177511 2.5301343 5.8009 5.6865433 7.707234 9.2731915 1.98064 3.7842205 3.03533 7.9843139 3.077447 12.2553192.015593.8875332-.339749 1.7413407-.980426 2.3557446-.65929.6317927-1.537927.9832478-2.451063.9804256h-11.942128c-1.693669.0344588-3.152895-1.186407-3.417872-2.8595745-.253368-2.0482457-.818182-4.0457596-1.674894-5.9234042-.745352-1.6110303-1.794941-3.0628834-3.091064-4.2757447-1.31895-1.1954617-2.859498-2.120716-4.534468-2.7234043-3.794837-1.2569802-7.8802-1.3423885-11.724255-.2451064-1.63515.443617-3.179331 1.1719172-4.561702 2.1514894-1.240164.8840583-2.268116 2.032946-3.009362 3.3634043-.751488 1.4002702-1.12242 2.9732082-1.075745 4.5617021-.038485 1.5965275.439062 3.1628814 1.361702 4.466383 1.083466 1.4229543 2.434072 2.6209227 3.97617 3.5268085 1.832099 1.1099538 3.776551 2.0228419 5.800852 2.7234042 2.246808.7625532 4.398297 1.4570213 6.413617 2.0425532 2.369361.7080851 4.75234 1.511489 7.094468 2.382979 2.418156.902259 4.778379 1.952763 7.067234 3.145532 2.260871 1.180669 4.41978 2.547067 6.454468 4.085106 2.040985 1.544131 3.872009 3.34769 5.446808 5.365106 1.608402 2.016149 2.890385 4.272256 3.799149 6.685958.927086 2.623104 1.387939 5.388222 1.361702 8.170213.083058 4.192061-1.031792 8.320785-3.213617 11.901276-2.065187 3.29538-4.808609 6.113074-8.047659 8.265532-3.340588 2.199586-7.021233 3.832872-10.893617 4.834043-3.87206 1.042761-7.864035 1.573803-11.874043 1.579576-4.407457.001093-8.790428-.655206-13.004255-1.947236-4.126345-1.241588-8.015606-3.165506-11.506383-5.691915-3.403697-2.473215-6.267166-5.614692-8.415319-9.23234-2.237293-3.831207-3.451786-8.173373-3.526809-12.609362-.022964-.890185.327621-1.749365.966809-2.369362.660513-.640052 1.544932-.996751 2.464681-.994042h11.887659c1.689252-.035455 3.146819 1.178217 3.417873 2.845957.26436 2.132496.924766 4.19684 1.947234 6.086809.931809 1.676969 2.185916 3.153206 3.690212 4.34383 1.562279 1.226966 3.340413 2.150672 5.242554 2.723404 4.13269 1.182144 8.50215 1.266623 12.677446.245106 1.698215-.395808 3.315218-1.082228 4.779575-2.028936 1.301623-.851852 2.402739-1.976198 3.227234-3.295319.805464-1.361698 1.202507-2.926238 1.14383-4.507234.073121-1.749397-.403029-3.477823-1.361703-4.942979-1.061635-1.519737-2.430072-2.800038-4.017021-3.758298-1.864664-1.151198-3.851282-2.091987-5.923404-2.805106-2.360284-.826099-4.629787-1.570497-6.808511-2.233192-3.363404-.980425-6.740425-2.260425-10.171915-3.703829-3.493307-1.449005-6.798921-3.314414-9.845106-5.555745-3.018039-2.218408-5.591137-4.985528-7.584681-8.1565958-2.099656-3.4451553-3.172039-7.4181707-3.091064-11.4519149-.054778-4.0852725.999373-8.1089283 3.050213-11.6425532 1.964085-3.3282044 4.597829-6.2123398 7.734468-8.4697872 3.223747-2.3042492 6.815159-4.044703 10.621277-5.1472341zm-60.949787-.4362885c1.468959-.0255561 2.790252.8900285 3.281702 2.2745864l28.963404 87.0263833c.332484.998716.143384 2.097543-.50383 2.927659-.652422.845734-1.655364 1.347205-2.723404 1.362236h-11.560851c-1.484673.02559-2.816358-.909892-3.295319-2.315427l-6.481702-20.221277h-25.46383l-6.604256 20.234894c-.48567 1.392636-1.806916 2.319153-3.281702 2.30181h-11.628936c-1.06804-.015031-2.070982-.516502-2.723404-1.362236-.644866-.831561-.829024-1.931389-.490213-2.927659l29.548936-87.0400003c.497902-1.3717276 1.808902-2.2785029 3.268085-2.2609694zm130.131409.0009519c1.769466.0517089 3.210709 1.4769974 3.260931 3.2676771v34.1514893h30.651915v-34.1514893c.051954-1.8524273 1.592515-3.3138295 3.445106-3.2680852l11.186729.0004081c1.769466.0517089 3.210709 1.4769974 3.260931 3.2676771v87.0399997c-.051954 1.852427-1.592516 3.31383-3.445107 3.268085l-11.186728-.000408c-1.769466-.051709-3.210709-1.476997-3.260931-3.267677v-36.956595h-30.651915v36.956595c-.051954 1.852427-1.592515 3.31383-3.445106 3.268085l-11.077793-.000408c-1.769465-.051709-3.210709-1.476997-3.260931-3.267677v-87.0399997c.051954-1.8524273 1.592516-3.3138295 3.445107-3.2680852zm-213.767154-.0140251c4.025956.0375198 8.033777.544781 11.942128 1.5114894 3.812584.9201911 7.437912 2.4910131 10.716595 4.6434042 3.198699 2.1194584 5.860601 4.9538475 7.775319 8.279149 2.026965 3.6893457 3.019662 7.8577339 2.873192 12.0646808-.017883 4.8828782-1.775182 9.5995853-4.956596 13.3038295-1.436587 1.67061-3.095104 3.136702-4.929362 4.357447l.87149.517447c2.297617 1.414486 4.348979 3.194478 6.073191 5.269787 1.725798 2.06849 3.084458 4.41736 4.017022 6.944681.937606 2.667488 1.398535 5.47915 1.361702 8.306383.115751 4.25973-.859219 8.478351-2.832341 12.255319-1.872172 3.486714-4.489699 6.518025-7.666383 8.878298-3.258899 2.393211-6.907735 4.203808-10.784681 5.351489-4.010241 1.216555-8.173726 1.853917-12.364255 1.892766l-29.515239-.000408c-1.769466-.051709-3.210709-1.476997-3.260931-3.267677v-87.0399998c.051954-1.8524272 1.592515-3.3138294 3.445106-3.2680851zm2.914042 52.8885109h-14.978723v24.782978h14.461277c1.958972-.02889 3.901785-.359581 5.76-.980425 1.715333-.564554 3.322303-1.416387 4.75234-2.519149 1.29381-1.010607 2.349162-2.293766 3.091064-3.758298.777923-1.578154 1.165526-3.320033 1.130213-5.079149.075029-1.800621-.265085-3.594376-.994043-5.242553-.670261-1.444594-1.651367-2.723286-2.873191-3.744681-1.321333-1.090737-2.836644-1.922311-4.466383-2.451064-1.901316-.62057-3.883094-.960041-5.882554-1.007659zm75.874043-21.3787236-7.571064 23.3395746h14.978724zm-78.488511-15.5097873h-12.405106v21.1472341h12.772766c1.845408-.0340296 3.67769-.3180332 5.446808-.8442554 1.62351-.4654092 3.156617-1.2020374 4.534469-2.1787234 1.236548-.8794373 2.271693-2.0120619 3.036595-3.3225531.738169-1.344843 1.095948-2.8654027 1.034894-4.3982979.056305-1.6138797-.309816-3.2144867-1.062128-4.6434043-.707376-1.2462449-1.701671-2.305892-2.900425-3.0910638-1.409316-.9087092-2.967106-1.5631653-4.602553-1.933617-1.919378-.4564707-3.882674-.7030242-5.85532-.7353192z"/><path d="m292.494345 169.416219c.421421.554171.735473 1.182275.925958 1.851915.208102.712172.313561 1.450386.313192 2.19234l-.013618 1.64766c.00093.741993-.10454 1.480287-.313191 2.19234-.188111.667977-.497359 1.295705-.912341 1.851915-.406258.535342-.927418.972744-1.525106 1.28-.668172.330224-1.406367.493748-2.151489.476596-1.4222.043032-2.775313-.613176-3.622128-1.756596-.409636-.557554-.71419-1.18512-.898723-1.851915-.203498-.712838-.30437-1.45104-.299575-2.19234v-1.64766c-.000544-.497895.045041-.99477.13617-1.484255.083884-.466407.216233-.922781.394894-1.361702.175089-.41974.399046-.817377.667234-1.184681.257157-.360076.569675-.677189.925957-.939575.36923-.266724.77823-.473522 1.211915-.612766.48025-.150077.981135-.223601 1.484256-.217872 1.437267-.042439 2.80657.611783 3.676595 1.756596zm160.258724-1.743094c.619685-.003814 1.235907.092758 1.824681.286072.538491.177638 1.041077.44968 1.484255.803405.41845.338435.761655.760484 1.00766 1.239149.250378.493776.380993 1.039562.381276 1.593191h-2.233191c-.026407-.304528-.099905-.603116-.217873-.885106-.112534-.263507-.279604-.50019-.490212-.694468-.220055-.201342-.479806-.354409-.762554-.449362-.333088-.113221-.683125-.16849-1.034893-.163404-.31285-.002414-.624507.038835-.925958.122553-.265979.075394-.515416.200113-.735319.367659-.203442.152304-.370816.347574-.490213.571915-.120441.235897-.181222.497722-.177021.762554.000658.277662.086181.548487.245107.77617.16927.233577.381936.432374.626383.585532.281999.179005.583529.325202.898723.435744.335886.118015.689929.226951 1.062128.326809.553877.154839 1.095505.350554 1.620425.585532.49036.217848.948529.501912 1.361702.844255.378383.313765.692766.697497.925958 1.130213.235474.458621.352501.968856.340425 1.484255.010491.528875-.121183 1.05087-.381276 1.51149-.253987.439164-.602918.81601-1.021277 1.102978-.453104.305386-.955089.531049-1.484255.667234-.577353.154527-1.172539.232359-1.770213.231597-.415541.002246-.830393-.034224-1.239149-.109044-.401186-.072209-.793689-.186308-1.171064-.340425-.370303-.149749-.722125-.341652-1.04851-.571915-.316863-.222616-.601034-.488453-.844256-.789787-.504031-.629829-.777865-1.412897-.776178-2.219575h2.246817c.023214.354944.115737.701903.27234 1.021277.143056.282462.347828.52912.599149.721702.260452.198851.556137.346694.871489.435745.358668.102117.730068.152554 1.102979.149787.316529.003401.63222-.033201.939574-.108936.272149-.067975.53025-.183199.762554-.340426.212729-.144287.389708-.335238.517446-.558298.124997-.243603.181475-.516584.163405-.789787.003998-.281133-.066472-.558317-.204256-.803404-.144924-.242578-.339895-.451476-.571915-.612766-.269919-.190282-.562717-.345831-.871489-.462979-.335886-.13617-.703546-.258723-1.102979-.367659-.537689-.147405-1.06531-.329343-1.579574-.544681-.486415-.208417-.944058-.478426-1.361702-.803404-.397886-.301741-.735154-.675969-.994043-1.102979-.259951-.445808-.391882-.954686-.381276-1.470638-.008056-.524276.123538-1.041254.381276-1.497873.252383-.439823.595962-.820545 1.00766-1.116596.446124-.318372.943548-.557872 1.470638-.708085.570747-.165521 1.162339-.248069 1.756596-.245221zm-68.398298-.027119c.636847-.00922 1.271121.082704 1.879149.27234.500811.172492.963297.440734 1.361702.789788.39922.350935.719459.782562.939575 1.266383.238498.525008.385852 1.086797.435744 1.661276h-2.19234c-.047657-.322559-.134542-.638087-.258724-.939574-.110306-.265315-.272319-.50602-.476595-.708085-.205617-.199736-.451734-.352979-.721703-.449362-.324418-.108988-.665566-.159699-1.007659-.149787-.42738-.013123-.849076.100593-1.211915.326808-.346428.231088-.635249.538542-.844255.898724-.239112.422968-.40486.88338-.490213 1.361702-.106584.510627-.16133 1.030712-.163404 1.55234v1.606809c.005863.517635.065185 1.033279.177021 1.538723.089508.481236.264776.942468.517447 1.361702.224499.366264.532459.674225.898723.898724.41332.238122.88495.35603 1.361702.340425h.653617c.216257-.023744.430271-.064725.64-.122553.193653-.05751.380768-.135094.558298-.231489.157219-.085527.296036-.201207.408511-.340426v-2.573617h-2.451064v-1.64766h4.643404l.068085 4.752341c-.238907.27091-.508521.513105-.803404.721702-.327069.229164-.678762.420997-1.048511.571915-.40442.16363-.824058.286785-1.252765.367659-.475563.092219-.958987.137825-1.443405.136171-.746419.016107-1.486746-.137546-2.165106-.449362-.616205-.290084-1.160352-.713309-1.593192-1.239149-.447004-.547871-.78448-1.176593-.994042-1.851915-.233538-.740141-.352923-1.511549-.354043-2.287659v-1.593192c-.004789-.775518.110035-1.547138.340426-2.28766.204374-.672026.532245-1.30006.966808-1.851914.414957-.521761.940488-.944976 1.538724-1.239149.648431-.315918 1.362201-.474534 2.083404-.462979zm-84.139574.13617v8.633192c.003837.368929.058829.735543.163404 1.089361.085587.309929.228793.600962.422127.857873.184869.237626.422672.428801.694469.558298.302677.140317.633239.210154.966808.204255.342335.005825.681742-.063916.994043-.204255.280857-.127199.528024-.318404.721702-.558298.199897-.254745.347935-.546194.435744-.857873.103401-.354078.158369-.720529.163405-1.089361v-8.633192l2.205961.054468v8.633192c.000726.61966-.114745 1.233962-.340429 1.811064-.208995.510876-.519355.974099-.912341 1.361702-.387397.38987-.850922.695796-1.361702.898723-.597396.217839-1.229749.324-1.865532.313192-.622425.010159-1.241269-.09606-1.824681-.313192-1.066413-.398894-1.909714-1.237235-2.314893-2.301277-.226737-.581542-.342215-1.200502-.340446-1.82468v-8.633192zm184.061276.081702v1.756596h-6.468085v3.635745h5.596596v1.68851h-5.582979v4.085107h6.522553v1.729361h-8.769361v-12.895319zm-231.829787 0v1.756596h-6.468085v3.635745h5.582978v1.68851h-5.582978v4.085107h6.522553v1.729361h-8.755745v-12.895319zm95.455319 0v1.756596h-6.468085v3.635745h5.582979v1.68851h-5.582979v4.085107h6.522553v1.729361h-8.755745v-12.895319zm-72.68766-.040851c.614485.003774 1.226583.076861 1.824681.217873.527995.119085 1.030583.331186 1.484256.626383.420441.274632.766571.648826 1.007659 1.089361.252669.482138.374729 1.022018.354043 1.565958.009901.593081-.187559 1.171013-.558298 1.634042-.3951.472688-.906705.834097-1.484255 1.048511.356075.093206.695863.240142 1.007659.435745.282657.177148.531626.403064.735319.667234.200337.258627.356752.548456.462979.857872.108268.324922.163444.665174.163404 1.007659.012484.560607-.108886 1.11611-.354042 1.620426-.231018.461468-.566769.862504-.980426 1.171064-.447459.324521-.950481.564495-1.484255.708085-.602784.169497-1.225757.25653-1.851915.258723l-4.657021-.013617v-12.895319zm123.860426.013617 4.316596 12.895319h-2.301277l-.898723-2.995744h-4.234894l-.925957 2.995744h-2.314894l4.398298-12.895319zm16.544681 0v1.756596h-2.92766v9.382128h2.92766v1.756595h-8.061277v-1.756595h2.873192v-9.382128h-2.873192v-1.756596zm-43.874043 0 4.316596 12.895319h-2.301277l-.844255-2.995744h-4.234894l-.925957 2.995744h-2.314894l4.398298-12.895319zm133.446809-.013617v11.165958h6.468085v1.729361h-8.701277v-12.895319zm-13.617021 0v11.165958h6.468085v1.729361h-8.701277v-12.895319zm-175.45532-.027234c.648578.00166 1.294117.088648 1.92.258724.549491.141801 1.067036.386711 1.525107.721702.424374.317749.765449.733581.994042 1.211915.246591.532847.367709 1.115146.354043 1.702127.005905.401899-.05389.802063-.177021 1.184681-.11535.347059-.285439.673447-.50383.966809-.219008.291679-.480661.548741-.77617.762553-.313178.224423-.651322.411774-1.00766.558298l2.873191 5.446808v.108936h-2.382978l-2.587234-5.051915h-2.274043v5.024681h-2.246808v-12.895319zm106.907234.027234 4.398298 8.851064v-8.851064h2.260426l-.013617 12.895319h-2.246809l-4.411915-8.864681v8.864681h-2.246808v-12.895319zm-95.482553 0 4.398298 8.851064v-8.851064h2.260426v12.895319h-2.246809l-4.411915-8.864681v8.864681h-2.260425v-12.895319zm136.238298 0v5.446809h4.643404v-5.446809h2.178724l-.013617 12.895319h-2.165107v-5.76h-4.629787v5.76h-2.178723v-12.895319zm-237.780425 0-.054469 1.756596h-4.166808v11.138723h-2.219575v-11.138723h-4.085106v-1.756596zm5.964255 0v5.446809h4.61617v-5.446809h2.178723v12.895319h-2.178723v-5.76h-4.61617v5.76h-2.165107v-12.895319zm56.851064 1.634043c-.44424-.01509-.882137.108663-1.252766.354042-.333288.235639-.604325.548734-.789787.912341-.203854.40203-.341782.834206-.408511 1.28-.077145.477361-.118113.959869-.122553 1.443404v1.661277c.007817.483942.053345.966538.13617 1.443404.069601.44512.207389.876854.408511 1.28.184548.367952.455551.685679.789787.925957.370244.246217.808415.370048 1.252766.354043.448516.015227.890792-.10842 1.266383-.354043.339647-.242022.619172-.558818.817021-.925957.213522-.400291.360683-.832574.435745-1.28.084187-.476683.129725-.959388.13617-1.443404l-.013617-1.661277c-.00471-.484108-.050261-.966956-.13617-1.443404-.075527-.447309-.222663-.879519-.435745-1.28-.196692-.364212-.476633-.676812-.817021-.912341-.375959-.24481-.817974-.368384-1.266383-.354042zm-13.140426 5.405957-2.546383.013617v4.085107h2.437447c.327992-.000718.653975-.051223.966809-.149788.272305-.089735.526063-.228148.748936-.40851.212097-.169068.384153-.382976.503829-.626383.122086-.259587.182663-.543831.177022-.830639.0036-.298435-.051937-.594629-.163405-.871489-.097995-.249283-.2517-.472854-.449361-.653617-.210762-.183157-.456191-.322079-.721702-.408511-.308137-.098653-.629649-.149177-.953192-.149787zm85.419575-.64v1.702128h-7.462128v-1.702128zm9.722553-3.349787-1.565958 5.051915h3.104681zm27.274893 0-1.565957 5.051915h3.104681zm-81.960851-1.348086h-2.042553l-.013617 4.425533h2.05617c.34612.003135.690635-.047394 1.021277-.149787.292626-.09389.565111-.241679.803404-.435745.22642-.183685.408034-.416523.531064-.680851.13013-.291116.195189-.607114.190638-.925958.005787-.326409-.054424-.650624-.177021-.953191-.112142-.267245-.28458-.504929-.50383-.694468-.234897-.199082-.508426-.347437-.803404-.435745-.345253-.099551-.702808-.149976-1.062128-.149788zm-40.878297.068086h-2.124256v3.662979h2.137873c.317156-.000306.63295-.041496.939574-.122554.269541-.070273.523556-.190352.748936-.354042.208387-.150796.38051-.346179.50383-.571915.127355-.238748.192894-.505588.190638-.77617.007148-.286949-.053502-.571537-.177021-.830638-.117323-.229875-.290582-.426546-.50383-.571915-.231694-.155328-.490286-.266153-.762553-.326809-.313051-.069517-.632527-.106028-.953191-.108936z"/></g></svg>