<svg enable-background="new 0 0 512 512" height="512" viewBox="0 0 512 512" width="512" xmlns="http://www.w3.org/2000/svg"><path d="m322.903 218.752h-77.357c-37.023 0-37.527 53.616 0 53.616 51.549 1.422 78.821 36.736 78.821 78.284 0 44.534-32.898 78.284-73.507 78.284l-170.77 1.647c-40.084-1.007-76.858-30.512-79.59-82.202l.453-183.828c0-38.708 52.714-39.327 52.714.433l.998 177.287c0 25.088 15.453 36.262 35.983 36.262h151.683c36.021 0 36.84-53.329-.354-53.329-47.819 0-78.214-38.416-78.646-82.692-.428-44.276 36.458-78.525 77.045-78.525l82.526-.998c34.301-.001 35.187 55.761.001 55.761zm111.549-137.336s-203.806 0-262.966 0c-58.153 0-88.868 47.05-88.868 86.049 0 39.997 1.002 158.382 1.002 158.382 0 36.021 52.543 36.579 52.543 0v-155.396c-.499-19.013 11.07-34.271 36.928-34.271h262.549c35.61 0 34.537 53.616 0 53.616-46.525.532-80.783 36.009-80.783 68.541l-1.002 93.684c0 36.237 52.547 34.524 52.547-2.004l.715-72.367c0-21.566 9.769-34.516 32.841-34.516 31.063 0 71.36-31.571 71.535-84.11.503-38.047-26.012-77.109-77.041-77.608z"/></svg>