<?xml version="1.0" encoding="utf-8"?>
<!-- Generator: Adobe Illustrator 25.0.1, SVG Export Plug-In . SVG Version: 6.00 Build 0)  -->
<svg version="1.0" id="katman_1" xmlns="http://www.w3.org/2000/svg" xmlns:xlink="http://www.w3.org/1999/xlink" x="0px" y="0px"
	 viewBox="0 0 560 400" style="enable-background:new 0 0 560 400;" xml:space="preserve">
<style type="text/css">
	.st0{fill:#00005B;}
	.st1{fill:#9999FF;}
</style>
<g transform="matrix(1.00000012 0 0 1.00000012 159.999963 83)">
	<path class="st0" d="M23.8-28.3h192.5c29.2,0,52.8,23.6,52.8,52.8v185c0,29.2-23.6,52.8-52.8,52.8H23.8
		c-29.2,0-52.8-23.6-52.8-52.8v-185C-29-4.7-5.4-28.3,23.8-28.3z"/>
	<g>
		<path class="st1" d="M41.8,175.5V47.7c0-0.9,0.4-1.4,1.2-1.4c2.1,0,4.1,0,7-0.1c3-0.1,6.1-0.1,9.4-0.2c3.4-0.1,7-0.1,10.8-0.2
			c3.8-0.1,7.6-0.1,11.3-0.1c10.2,0,18.6,1.2,25.6,3.8c6.2,2.1,11.9,5.6,16.6,10.2c4,4,7.1,8.8,9.1,14.2c1.9,5.2,2.9,10.6,2.9,16.1
			c0,10.7-2.5,19.5-7.4,26.4c-5,7-11.9,12.2-20,15.1c-8.4,3.1-17.8,4.2-27.9,4.2c-3,0-5,0-6.2-0.1c-1.2-0.1-3-0.1-5.3-0.1v39.9
			c0.1,0.9-0.5,1.6-1.4,1.7H43.3C42.3,177.1,41.8,176.6,41.8,175.5L41.8,175.5z M68.8,70.3V112c1.7,0.1,3.4,0.2,4.8,0.2h6.6
			c4.8,0,9.7-0.7,14.3-2.2c4-1.1,7.5-3.5,10.2-6.6c2.6-3.1,3.8-7.3,3.8-12.8c0.1-3.8-0.9-7.7-2.9-11.1c-2.1-3.2-5.1-5.7-8.7-7.1
			c-4.6-1.9-9.6-2.6-14.7-2.5c-3.2,0-6.1,0-8.4,0.1C71.5,70.1,69.7,70.2,68.8,70.3L68.8,70.3z"/>
		<path class="st1" d="M153,77.5h21.7c1.2,0,2.2,0.9,2.6,2c0.4,1,0.6,2,0.7,3.1c0.2,1.2,0.5,2.6,0.6,3.8c0.1,1.4,0.2,2.9,0.2,4.5
			c3.7-4.3,8.2-7.9,13.3-10.7c5.7-3.2,12.3-4.8,18.9-4.8c0.9-0.1,1.6,0.5,1.7,1.4v24.7c0,1-0.6,1.4-2,1.4c-4.5-0.1-9.1,0.2-13.4,1.2
			c-3.6,0.7-7.1,1.9-10.4,3.4c-2.4,1.1-4.6,2.6-6.3,4.6v63.3c0,1.2-0.5,1.7-1.6,1.7h-24.5c-1,0.1-1.9-0.5-2-1.5v-69.3
			c0-3,0-6.1-0.1-9.3c-0.1-3.2-0.1-6.5-0.2-9.7c0-2.9-0.2-5.6-0.5-8.4c-0.1-0.6,0.2-1.2,0.9-1.4C152.7,77.4,152.9,77.4,153,77.5
			L153,77.5z"/>
	</g>
</g>
</svg>
