<?xml version="1.0" encoding="UTF-8"?>
<svg xmlns="http://www.w3.org/2000/svg" xmlns:xlink="http://www.w3.org/1999/xlink" width="225pt" height="300pt" viewBox="0 0 225 300" version="1.1">
<g id="surface1">
<rect x="0" y="0" width="225" height="300" style="fill:rgb(100%,100%,100%);fill-opacity:1;stroke:none;"/>
<path style=" stroke:none;fill-rule:nonzero;fill:rgb(100%,70.896912%,8.616638%);fill-opacity:1;" d="M 81.441406 149.382813 C 81.441406 135.230469 88.082031 122.628906 98.414063 114.519531 L 82.617188 89.242188 C 69.382813 98.746094 59.417969 112.507813 54.71875 128.519531 C 62.082031 133.257813 66.960938 141.527344 66.960938 150.933594 C 66.960938 159.996094 62.433594 167.996094 55.519531 172.808594 C 60.582031 187.980469 70.425781 200.96875 83.261719 209.980469 L 97.941406 183.863281 C 87.878906 175.746094 81.441406 163.316406 81.441406 149.382813 "/>
<path style=" stroke:none;fill-rule:nonzero;fill:rgb(99.609375%,38.818359%,3.529358%);fill-opacity:1;" d="M 59.484375 150.933594 C 59.484375 161.511719 50.910156 170.089844 40.332031 170.089844 C 29.753906 170.089844 21.175781 161.511719 21.175781 150.933594 C 21.175781 140.355469 29.753906 131.78125 40.332031 131.78125 C 50.910156 131.78125 59.484375 140.355469 59.484375 150.933594 "/>
<path style=" stroke:none;fill-rule:nonzero;fill:rgb(84.375%,0%,0%);fill-opacity:1;" d="M 167.082031 197.257813 C 171.535156 197.257813 175.734375 198.351563 179.421875 200.285156 C 190.894531 188.183594 198.324219 172.214844 199.539063 154.53125 L 169.78125 153.949219 C 167.496094 176.261719 148.644531 193.671875 125.730469 193.671875 C 119.375 193.671875 113.339844 192.328125 107.878906 189.917969 L 93.085938 215.800781 C 102.933594 220.652344 114.011719 223.378906 125.730469 223.378906 C 130.796875 223.378906 135.742188 222.863281 140.523438 221.894531 C 141.546875 208.117188 153.046875 197.257813 167.082031 197.257813 "/>
<path style=" stroke:none;fill-rule:nonzero;fill:rgb(100%,70.896912%,8.616638%);fill-opacity:1;" d="M 186.234375 223.886719 C 186.234375 234.464844 177.660156 243.039063 167.082031 243.039063 C 156.503906 243.039063 147.929688 234.464844 147.929688 223.886719 C 147.929688 213.308594 156.503906 204.734375 167.082031 204.734375 C 177.660156 204.734375 186.234375 213.308594 186.234375 223.886719 "/>
<path style=" stroke:none;fill-rule:nonzero;fill:rgb(99.609375%,38.818359%,3.529358%);fill-opacity:1;" d="M 181.464844 100.722656 C 177.121094 103.800781 171.8125 105.613281 166.082031 105.613281 C 151.375 105.613281 139.453125 93.6875 139.453125 78.980469 C 139.453125 78.207031 139.488281 77.441406 139.550781 76.683594 C 135.074219 75.835938 130.453125 75.390625 125.730469 75.390625 C 113.894531 75.390625 102.714844 78.171875 92.792969 83.113281 L 107.507813 109.007813 C 113.066406 106.496094 119.234375 105.097656 125.730469 105.097656 C 148.441406 105.097656 167.160156 122.199219 169.714844 144.226563 L 199.476563 143.324219 C 198.15625 127.074219 191.585938 112.308594 181.464844 100.722656 "/>
<path style=" stroke:none;fill-rule:nonzero;fill:rgb(84.375%,0%,0%);fill-opacity:1;" d="M 185.234375 78.980469 C 185.234375 89.558594 176.660156 98.136719 166.082031 98.136719 C 155.503906 98.136719 146.929688 89.558594 146.929688 78.980469 C 146.929688 68.402344 155.503906 59.828125 166.082031 59.828125 C 176.660156 59.828125 185.234375 68.402344 185.234375 78.980469 "/>
</g>
</svg>
