<?xml version="1.0" encoding="utf-8"?>
<!-- Generator: Adobe Illustrator 25.0.0, SVG Export Plug-In . SVG Version: 6.00 Build 0)  -->
<svg version="1.1" id="Layer_1" xmlns="http://www.w3.org/2000/svg" xmlns:xlink="http://www.w3.org/1999/xlink" x="0px" y="0px"
	 viewBox="0 0 500 500" style="enable-background:new 0 0 500 500;" xml:space="preserve">
<style type="text/css">
	.st0{fill:#470137;}
	.st1{fill:#FF61F6;}
</style>
<g id="Layer_2_1_">
	<g id="Surfaces">
		<g id="UI_UX_Surface">
			<g id="Outline_no_shadow">
				<path class="st0" d="M119.5,53h260.9C420,53,452,85,452,124.6v250.8c0,39.6-32,71.5-71.5,71.5H119.5C80,447,48,415,48,375.4
					V124.6C48,85,80,53,119.5,53z"/>
			</g>
		</g>
	</g>
	<g id="Outlined_Mnemonics_Logos">
		<g id="Xd">
			<path class="st1" d="M260.4,156.6l-50.5,83.3l53.9,88.4c0.3,0.7,0.5,1.3,0.3,2c-0.2,0.7-0.8,0.2-1.9,0.3h-38.5
				c-2.7,0-4.5-0.2-5.7-1.9c-3.5-7.1-7.2-14-10.8-21c-3.5-6.9-7.4-14-11.4-21.2c-4-7.2-8.1-14.5-12.1-21.9h-0.3
				c-3.5,7.2-7.4,14.5-11.3,21.7c-3.9,7.2-7.7,14.5-11.4,21.5c-3.9,7.1-7.7,14.3-11.6,21.2c-0.7,1.7-2,1.9-3.9,1.9h-37
				c-0.7,0-1.2,0.3-1.2-0.5c-0.2-0.7,0-1.3,0.3-1.9l52.4-85.8l-51-86.4c-0.5-0.7-0.7-1.3-0.3-1.7c0.3-0.5,1-0.7,1.7-0.7h38.2
				c0.8,0,1.7,0.2,2.4,0.3c0.7,0.3,1.2,0.8,1.7,1.5c3.2,7.2,6.9,14.5,10.8,21.7c4,7.2,7.9,14.3,12.1,21.4c4,7.1,7.7,14.1,11.3,21.4
				h0.3c3.5-7.4,7.2-14.6,10.9-21.7c3.7-7.1,7.6-14.1,11.4-21.2c3.9-7.1,7.6-14.3,11.3-21.2c0.2-0.7,0.5-1.3,1-1.7
				c0.7-0.3,1.3-0.5,2.2-0.3h35.5c0.8-0.2,1.7,0.3,1.9,1.2C261.1,155.6,260.8,156.2,260.4,156.6L260.4,156.6z"/>
			<path class="st1" d="M338.2,334.2c-12.5,0.2-24.9-2.4-36.2-7.6c-10.6-4.9-19.4-13-25.4-22.9c-6.2-10.3-9.3-23.1-9.3-38.4
				c-0.2-12.5,3-24.7,9.3-35.5c6.4-10.9,15.7-20,26.8-26.1c11.8-6.6,25.9-9.8,42.6-9.8c0.8,0,2,0,3.5,0.2c1.5,0.2,3.2,0.2,5.2,0.3
				v-53.2c0-1.2,0.5-1.9,1.7-1.9h34.2c0.8-0.2,1.5,0.5,1.7,1.2c0,0.2,0,0.3,0,0.3v160.3c0,3,0.2,6.4,0.3,10.1
				c0.3,3.5,0.5,6.9,0.7,9.8c0,1.2-0.5,2.2-1.7,2.7c-8.8,3.7-18,6.4-27.4,8.1C355.5,333.3,347,334.2,338.2,334.2z M354.7,300.5
				v-74.1c-1.5-0.3-3-0.7-4.5-0.8c-1.9-0.2-3.7-0.3-5.6-0.3c-6.6,0-13.1,1.3-19,4.4c-5.7,2.9-10.6,7.1-14.3,12.5
				c-3.7,5.4-5.6,12.6-5.6,21.4c-0.2,5.9,0.8,11.8,2.9,17.3c1.7,4.5,4.2,8.6,7.6,12c3.2,3,7.1,5.4,11.4,6.7c4.5,1.5,9.3,2.2,14,2.2
				c2.5,0,4.9-0.2,7.1-0.3C350.8,301.5,352.7,301.2,354.7,300.5z"/>
		</g>
	</g>
</g>
</svg>
